<svg viewBox="0 0 24 24" fill="#325d4d" xmlns="http://www.w3.org/2000/svg">
<path d="M20.4456 3.00177C20.1742 3.01448 19.9186 3.09395 19.6913 3.18296H19.6882C19.4578 3.27514 18.3628 3.73924 16.6997 4.44174C15.0366 5.14743 12.8781 6.06291 10.7353 6.97203C6.45611 8.7871 2.24949 10.5736 2.24949 10.5736L2.29999 10.5545C2.29999 10.5545 2.00966 10.6498 1.7067 10.8596C1.55207 10.9614 1.38166 11.1012 1.23334 11.3206C1.08502 11.5399 0.965102 11.8768 1.00928 12.2233C1.08187 12.8114 1.46056 13.1642 1.73195 13.3581C2.0065 13.5552 2.26843 13.6474 2.26843 13.6474H2.27474L6.21943 14.9857C6.39615 15.5578 7.42177 18.9527 7.66792 19.7347C7.81309 20.202 7.95509 20.4944 8.13182 20.717C8.21702 20.8314 8.31801 20.9268 8.43793 21.003C8.48526 21.0317 8.53575 21.0539 8.58625 21.073C8.60202 21.0825 8.6178 21.0857 8.63674 21.0889L8.59571 21.0793C8.60834 21.0825 8.6178 21.0921 8.62727 21.0952C8.65883 21.1048 8.68092 21.1079 8.72194 21.1143C9.34678 21.305 9.84855 20.914 9.84855 20.914L9.87695 20.8918L12.2059 18.7557L16.1096 21.7723L16.1979 21.8104C17.0121 22.1696 17.8358 21.9694 18.2713 21.6165C18.7099 21.2605 18.8803 20.806 18.8803 20.806L18.9087 20.7329L21.9256 5.1665C22.0108 4.78187 22.0329 4.42267 21.9382 4.07301C21.8436 3.72335 21.6006 3.39594 21.3071 3.2211C21.0104 3.04309 20.717 2.98905 20.4456 3.00177ZM20.3635 4.67061C20.3604 4.72147 20.3698 4.71512 20.3477 4.81366V4.82319L17.3592 20.2274C17.3466 20.2497 17.3245 20.2974 17.2646 20.345C17.2015 20.3959 17.151 20.4277 16.889 20.3228L12.1144 16.6354L9.23002 19.2833L9.83592 15.3862C9.83592 15.3862 17.3151 8.36433 17.6369 8.06234C17.9588 7.76036 17.8515 7.69679 17.8515 7.69679C17.8736 7.32805 17.3656 7.58871 17.3656 7.58871L7.52907 13.7269L7.52591 13.711L2.81122 12.1121V12.1089C2.80806 12.1089 2.80175 12.1057 2.7986 12.1057C2.80175 12.1057 2.82384 12.0962 2.82384 12.0962L2.84909 12.0835L2.87433 12.0739C2.87433 12.0739 7.08411 10.2875 11.3633 8.4724C13.5061 7.56328 15.6646 6.6478 17.3245 5.94212C18.9845 5.23961 20.212 4.72465 20.2815 4.69604C20.3477 4.67061 20.3162 4.67061 20.3635 4.67061Z" fill="#325d4d"/>
</svg>
