<svg fill="#fff" width="24px" height="24px" id="Layer_1" data-name="Layer 1" xmlns="http://www.w3.org/2000/svg" viewBox="0 0 94 94"><path d="M80.71,87.2H18.84a3.37,3.37,0,0,1-3.37-3.37V4.63a3.38,3.38,0,0,1,3.37-3.38H68.15a.75.75,0,0,1,0,1.5H18.84A1.88,1.88,0,0,0,17,4.63v79.2a1.87,1.87,0,0,0,1.87,1.87H80.71a1.87,1.87,0,0,0,1.87-1.87V17.17a.75.75,0,0,1,1.5,0V83.83A3.38,3.38,0,0,1,80.71,87.2Z"/><path d="M74.72,92.75h-61a3.82,3.82,0,0,1-3.81-3.81V10.61A3.82,3.82,0,0,1,13.73,6.8h2.49a.75.75,0,0,1,0,1.5H13.73a2.32,2.32,0,0,0-2.31,2.31V88.94a2.32,2.32,0,0,0,2.31,2.31h61A2.31,2.31,0,0,0,77,88.94V86.45a.75.75,0,0,1,1.5,0v2.49A3.82,3.82,0,0,1,74.72,92.75Z"/><path d="M83.32,17.92H70.82A3.42,3.42,0,0,1,67.4,14.5V2a.75.75,0,0,1,1.28-.53L83.85,16.64a.75.75,0,0,1-.53,1.28ZM68.9,3.81V14.5a1.92,1.92,0,0,0,1.92,1.92H81.51Z"/><path d="M69.92,80.29H29a3.73,3.73,0,0,1-3.72-3.72V52.74A3.72,3.72,0,0,1,29,49h41a3.72,3.72,0,0,1,3.72,3.71V76.57A3.73,3.73,0,0,1,69.92,80.29ZM29,50.53a2.22,2.22,0,0,0-2.22,2.21V76.57A2.23,2.23,0,0,0,29,78.79h41a2.23,2.23,0,0,0,2.22-2.22V52.74a2.22,2.22,0,0,0-2.22-2.21Z"/><path d="M49.77,80.29a.77.77,0,0,1-.58-.28L38.29,66.74,27.4,79.14a.73.73,0,0,1-1,.06.73.73,0,0,1-.07-1L37.74,65.09a.82.82,0,0,1,.58-.26.74.74,0,0,1,.57.27l11.46,14a.75.75,0,0,1-.1,1.06A.78.78,0,0,1,49.77,80.29Z"/><path d="M72.89,75.26a.76.76,0,0,1-.6-.29L58.6,57.4,44.79,73.24a.75.75,0,1,1-1.13-1L58.07,55.72a.76.76,0,0,1,.59-.25.73.73,0,0,1,.57.29L73.48,74a.77.77,0,0,1-.13,1.06A.8.8,0,0,1,72.89,75.26Z"/><path d="M35.73,61.72a3.33,3.33,0,1,1,3.33-3.32A3.32,3.32,0,0,1,35.73,61.72Zm0-5.15a1.83,1.83,0,1,0,1.83,1.83A1.83,1.83,0,0,0,35.73,56.57Z"/><path d="M55.33,15.53H26A.75.75,0,0,1,26,14H55.33a.75.75,0,0,1,0,1.5Z"/><path d="M72.89,24.15H26a.75.75,0,1,1,0-1.5H72.89a.75.75,0,0,1,0,1.5Z"/><path d="M72.89,32.78H26a.75.75,0,0,1,0-1.5H72.89a.75.75,0,0,1,0,1.5Z"/><path d="M72.89,41.4H26a.75.75,0,1,1,0-1.5H72.89a.75.75,0,0,1,0,1.5Z"/></svg>